<svg width="96" height="96" viewBox="0 0 96 96" fill="none" xmlns="http://www.w3.org/2000/svg">
    <style>
        @media (prefers-color-scheme: dark) {
        path { fill: #ffffff }
        }
    </style>
    <path fill-rule="evenodd" clip-rule="evenodd" d="M16 0C7.16344 0 0 7.16345 0 16V80C0 88.8366 7.16345 96 16 96H80C88.8366 96 96 88.8366 96 80V16C96 7.16344 88.8366 0 80 0H16ZM40.664 54.232C40.664 64.856 34.264 71.896 24.6 71.896C16.024 71.896 9.56 66.328 8.408 58.008H16.536C17.368 61.72 20.568 64.216 24.6 64.216C29.08 64.216 32.088 60.248 32.088 54.232V27.096H40.664V54.232ZM55.913 71H47.337V27.096H55.913V47L74.089 27.096H85.673L67.945 46.168L85.737 71H75.753L62.313 52.248L55.913 59.096V71Z" fill="#212121"/>
</svg>
